# xmcd CD database file
#
# Track frame offsets:
#	151
#	31275
#	53834
#	68459
#	85153
#	103037
#	122331
#	139739
#	155600
#	166780
#	183173
#	196524
#	216073
#
# Disc length: 3320 seconds
#
# Revision: 0
# Processed by: cddbd v1.5.1PL2 Copyright (c) Steve Scherf et al.
# Submitted via: CDex 1.51
#
DISCID=9c0cf60d
DTITLE=Jet - Sweet Young Things_Big Day Out 2004(The Carling Academy, Islington, UK. Mar. 8th 2004)
DYEAR=1900
DGENRE=Rock
TTITLE0=Cold Hard Bitch
TTITLE1=Get What You Need
TTITLE2=Sweet Young Thing
TTITLE3=Rollover Dj
TTITLE4=Look What You've Done
TTITLE5=Lazy Gun
TTITLE6=Are You Gonna Be My Girl
TTITLE7=Hey Kids
TTITLE8=Last Chance
TTITLE9=Get Me Outta Here
TTITLE10=Take It Or Leave It
TTITLE11=Move On
TTITLE12=That's Alright
EXTD=
EXTT0=
EXTT1=
EXTT2=
EXTT3=
EXTT4=
EXTT5=
EXTT6=
EXTT7=
EXTT8=
EXTT9=
EXTT10=
EXTT11=
EXTT12=
PLAYORDER=
